<?xml version="1.0" encoding="UTF-8" standalone="no"?>
<!-- Created with Inkscape (http://www.inkscape.org/) -->

<svg
   width="95"
   height="22"
   viewBox="0 0 25.135416 5.8208335"
   version="1.1"
   id="svg5"
   inkscape:version="1.1.1 (3bf5ae0d25, 2021-09-20)"
   sodipodi:docname="test.svg"
   xmlns:inkscape="http://www.inkscape.org/namespaces/inkscape"
   xmlns:sodipodi="http://sodipodi.sourceforge.net/DTD/sodipodi-0.dtd"
   xmlns="http://www.w3.org/2000/svg"
   xmlns:svg="http://www.w3.org/2000/svg">
  <sodipodi:namedview
     id="namedview7"
     pagecolor="#ffffff"
     bordercolor="#666666"
     borderopacity="1.0"
     inkscape:pageshadow="2"
     inkscape:pageopacity="0.0"
     inkscape:pagecheckerboard="0"
     inkscape:document-units="mm"
     showgrid="false"
     units="px"
     inkscape:zoom="5.8725028"
     inkscape:cx="76.713459"
     inkscape:cy="12.686243"
     inkscape:window-width="1920"
     inkscape:window-height="1009"
     inkscape:window-x="1912"
     inkscape:window-y="-8"
     inkscape:window-maximized="1"
     inkscape:current-layer="layer1" />
  <defs
     id="defs2">
    <pattern
       id="EMFhbasepattern"
       patternUnits="userSpaceOnUse"
       width="6"
       height="6"
       x="0"
       y="0" />
  </defs>
  <g
     inkscape:label="Layer 1"
     inkscape:groupmode="layer"
     id="layer1">
    <path
       style="fill:none;stroke:none;stroke-width:0.114707"
       d="M 0.42245497,-0.42154105 H 24.633346 V 6.2335854 H 0.42245497 Z"
       id="path12" />
    <path
       style="fill:#000000;fill-opacity:1;fill-rule:nonzero;stroke:none;stroke-width:0.114707"
       d="m 3.405788,1.235069 -0.0072,-0.0502 -0.0072,-0.057372 -0.0072,-0.021514 0.0072,0.035857 V 1.120325 C 3.384188,1.098811 3.377048,1.077296 3.369878,1.055781 l -0.0072,-0.014343 0.02151,0.071715 V 1.09881 L 3.376988,1.070124 V 1.055781 C 3.362648,0.99840899 3.319618,0.94103753 3.262245,0.90518013 3.204875,0.87649413 3.140329,0.86932213 3.075786,0.88366513 v 0 c -0.06454,0.021515 -0.114743,0.064544 -0.150601,0.12191507 -0.02869,0.057371 -0.02869,0.1290865 -0.0072,0.1936298 V 1.213553 1.19921 l 0.0072,0.043029 v 0 l 0.02151,0.057372 -0.0072,-0.00717 0.02151,0.086058 v -0.00717 l 0.02151,0.1075722 -0.0072,-0.00717 0.02151,0.1290864 v -0.00717 L 3.011165,1.737077 V 1.722734 l 0.01434,0.1649439 v -0.014343 0.1721154 0 L 3.032705,2.23908 V 2.23191 l -0.0072,0.2008013 v -0.00717 0.2151443 -0.00717 l -0.01434,0.2151441 v -0.00718 l -0.02151,0.2294872 v -0.00717 l -0.02151,0.2079727 v 0 l -0.02151,0.2079696 v 0 l -0.01434,0.1864582 v 0 l -0.01434,0.1792869 v 0.00717 l -0.0072,0.1649438 v -0.00717 l -0.0072,0.150601 v 0.021512 0.129087 -0.00717 0.1147437 0.014341 l 0.0072,0.086057 0.0072,0.014341 0.0072,0.071715 0.0072,0.043029 0.02151,0.057372 0.01434,0.028687 0.02151,0.050201 v 0.00717 l 0.02151,0.035858 c 0.01434,0.021516 0.02869,0.043029 0.0502,0.064543 l 0.02869,0.021515 0.02868,0.021513 0.02151,0.014341 c 0.02151,0.00717 0.0502,0.021513 0.07172,0.021513 l 0.02868,0.00717 h 0.03586 0.02869 c 0.114744,0 0.207972,-0.093229 0.207972,-0.2079724 0,-0.1147438 -0.09323,-0.2079731 -0.207972,-0.2079731 h -0.02869 l 0.02869,0.00717 -0.02151,-0.00717 0.07172,0.028687 -0.02151,-0.014341 0.0502,0.043029 -0.02151,-0.028687 0.03586,0.064544 -0.01434,-0.043029 0.0072,0.035858 -0.01434,-0.057372 0.0072,0.028687 -0.0072,-0.064544 v 0.021513 l 0.0072,-0.071715 v 0.014341 l 0.0072,-0.086058 v 0 l 0.0072,-0.1075721 v -0.014337 l 0.0072,-0.1290865 -0.0072,0.021516 0.02151,-0.1506009 v -0.014341 l 0.0072,-0.157776 v 0.014343 L 3.448845,3.716394 v 0 l 0.01435,-0.1864574 v 0 l 0.02869,-0.2008011 v -0.00717 l 0.02151,-0.2079727 v -0.00717 l 0.01434,-0.2223157 v -0.00717 l 0.01434,-0.215144 v -0.00718 -0.2151443 -0.00717 -0.2008013 -0.00717 l -0.0072,-0.1864584 v 0 l -0.0072,-0.1721152 v -0.014343 l -0.01434,-0.164944 v -0.014343 l -0.01434,-0.1434295 -0.0072,-0.00717 -0.02151,-0.1290866 v -0.014343 l -0.02151,-0.107572 -0.0072,-0.00717 -0.02151,-0.086058 v -0.014343 l -0.02151,-0.057372 v -0.00717 l -0.01434,-0.043029 c -0.0072,-0.021515 -0.01434,-0.035857 -0.02868,-0.057372 l -0.01434,-0.014343 c -0.02868,-0.0502 -0.07172,-0.086058 -0.129087,-0.10040056 v 0 c -0.1004,-0.028686 -0.207972,0.00717 -0.265344,0.10040056 -0.05737,0.086058 -0.0502,0.20080131 0.01434,0.27968751 l 0.0072,0.00717 -0.02151,-0.028686 0.0072,0.014342 -0.0072,-0.00717 0.01434,0.014342 -0.02151,-0.057372 v 0.021515 l 0.02151,0.0502 0.0072,0.021515 -0.01434,-0.043029 0.01434,0.0502 c 0.02869,0.1075721 0.136258,0.1792868 0.251002,0.1577724 0.114743,-0.014343 0.19363,-0.1147436 0.186458,-0.2294872 z"
       id="path14" />
    <path
       style="fill:#000000;fill-opacity:1;fill-rule:nonzero;stroke:none;stroke-width:0.114707"
       d="m 1.5985769,1.2063833 -0.04303,-0.121915 0.0072,0.00717 -0.02151,-0.057371 -0.0072,-0.021514 -0.02151,-0.0502 0.01434,0.035858 -0.01434,-0.057372 v 0.014343 -0.057372 0.021515 -0.043029 -0.00717 l -0.0072,-0.0502 v 0.064543 l 0.0072,-0.043029 v 0 l 0.0072,-0.035857 -0.02868,0.064544 0.02151,-0.028686 -0.01434,0.021515 0.02869,-0.043029 -0.05737,0.057372 0.0502,-0.028686 -0.01434,0.00717 0.05737,-0.028686 -0.03586,0.00717 0.07171,-0.021515 h 0.0072 l 0.07889,-0.028686 h -0.02151 l 0.1004,-0.028686 -0.01434,0.00717 0.1147441,-0.028686 -0.01434,0.00717 0.136257,-0.028686 -0.02151,0.00717 0.1506,-0.014343 h -0.01434 l 0.179287,-0.014343 -0.0072,0.00717 0.207973,-0.00717 h -0.0072 l 0.229487,-0.00717 h -0.0072 l 0.258174,0.00717 h -0.01434 l 0.272516,0.021514 h -0.01434 l 0.301202,0.043029 -0.01434,-0.00717 0.322716,0.064544 -0.02151,-0.00717 0.322716,0.086058 H 4.094269 L 4.424157,1.0055807 4.409817,0.99841069 4.711019,1.127497 4.696679,1.120327 4.976367,1.270928 4.954847,1.256585 5.198677,1.4215289 5.169987,1.4071859 5.37796,1.5936441 5.35645,1.5649581 l 0.164943,0.1936297 -0.02152,-0.035857 0.121915,0.2151441 -0.02152,-0.043029 0.07889,0.2223157 -0.0072,-0.043029 0.04303,0.2294871 -0.0072,-0.043029 v 0.229487 -0.021514 l -0.02151,0.2438301 v -0.035857 l -0.0502,0.2366586 v -0.014342 l -0.07172,0.2366586 0.0072,-0.021514 -0.09323,0.2151442 0.0072,-0.021514 -0.107572,0.2151442 0.0072,-0.014343 -0.114743,0.1936299 0.0072,-0.014343 -0.136258,0.1864582 0.0072,-0.00717 -0.136258,0.1792867 0.01434,-0.014341 -0.150601,0.1721154 0.0072,-0.00717 -0.143429,0.150601 0.01434,-0.014341 -0.150601,0.1290865 0.0072,-0.00717 -0.150601,0.1219153 0.01434,-0.00717 -0.157773,0.1075721 0.0072,-0.00717 -0.157773,0.1004009 0.01434,-0.00717 -0.164944,0.093229 0.02151,-0.00717 -0.150595,0.064536 h 0.0072 l -0.157773,0.064544 0.02151,-0.00717 -0.157772,0.043029 h 0.01434 l -0.164944,0.035858 h 0.01434 l -0.172115,0.028687 v 0 l -0.179287,0.028687 0.01434,-0.00717 -0.172115,0.021516 0.01434,-0.00717 -0.172115,0.00717 v 0 l -0.172116,0.00717 h 0.01434 -0.179287 0.02151 l -0.16494,-0.00718 h 0.01434 l -0.164944,-0.014341 0.03586,0.00717 -0.143429,-0.028687 h 0.01434 l -0.129087,-0.035858 0.02151,0.00717 -0.114743,-0.043029 0.01434,0.00717 -0.1075721,-0.0502 0.01434,0.00717 -0.08606,-0.043029 0.02151,0.014341 -0.07172,-0.0502 0.02869,0.021513 -0.0502,-0.043029 0.02151,0.021517 -0.02868,-0.035858 0.03586,0.057372 -0.02151,-0.043029 0.01434,0.043029 -0.0072,-0.035854 v 0.1004009 l 0.0072,-0.035857 -0.02869,0.078886 0.02151,-0.035858 -0.07172,0.057372 0.0502,-0.021516 -0.01434,0.00717 0.07171,-0.035858 -0.02151,0.00717 0.100401,-0.028687 v 0 L 1.856906,4.9427193 v 0 L 1.985992,4.9068613 C 2.10058,4.8709971 2.157952,4.7562542 2.129266,4.6486821 2.093409,4.54111 1.978665,4.4765667 1.871093,4.5124244 l -0.1290871,0.035858 v 0 l -0.121915,0.035858 v 0 l -0.1004,0.028687 -0.0072,0.00717 -0.07889,0.028687 h -0.01434 l -0.0502,0.02869 c -0.02151,0.00717 -0.04303,0.021516 -0.05737,0.035858 l -0.03586,0.028685 c -0.01434,0.014341 -0.02868,0.035858 -0.04303,0.057372 l -0.01434,0.028686 -0.02151,0.057372 -0.0072,0.035858 c -0.0072,0.028687 -0.0072,0.057372 -0.0072,0.086058 l 0.0072,0.043029 0.01434,0.0502 0.01434,0.0502 0.02869,0.057371 0.04303,0.0502 c 0.0072,0.014341 0.02151,0.035858 0.04303,0.0502 l 0.06454,0.0502 0.01434,0.014341 0.07889,0.057372 0.02869,0.021517 0.100401,0.0502 0.02151,0.014341 0.121915,0.0502 0.02151,0.00717 0.129086,0.043029 0.02869,0.00717 0.14343,0.028687 0.02151,0.00717 0.164943,0.021513 h 0.01434 l 0.157772,0.00718 h 0.01434 0.179286 0.01434 l 0.172115,-0.014341 h -0.0072 l 0.179287,-0.00717 h 0.01434 l 0.172116,-0.021517 h 0.01434 l 0.186465,-0.028686 v -0.00717 l 0.172115,-0.028687 0.02151,-0.00717 0.172116,-0.043029 0.0072,-0.00717 0.157772,-0.0502 0.02868,-0.00717 0.157773,-0.071714 0.01434,-0.00717 0.143429,-0.078886 0.02151,-0.00717 0.157772,-0.1004005 0.01434,-0.00717 0.150601,-0.1075747 v -0.00717 l 0.157772,-0.1147432 0.0072,-0.00717 0.150601,-0.1219149 0.0072,-0.00717 0.150601,-0.1362581 0.0072,-0.014341 0.143429,-0.150601 0.0072,-0.00717 0.150601,-0.1721153 0.0072,-0.014341 0.136259,-0.1721154 v -0.00717 l 0.136257,-0.1864581 0.01434,-0.014341 0.114743,-0.1936299 0.0072,-0.014343 0.11475,-0.2079811 0.0072,-0.014343 0.09323,-0.2151442 0.01434,-0.028686 0.07172,-0.2366585 0.0072,-0.014343 0.05737,-0.2366586 0.0072,-0.028686 0.02869,-0.2438301 v -0.021514 l 0.0072,-0.2294871 -0.0072,-0.043029 -0.03586,-0.2294872 -0.0072,-0.035857 -0.07171,-0.2223157 -0.02152,-0.0502 L 5.944633,1.4645701 5.923113,1.4287131 5.758169,1.2279119 5.729479,1.1992259 5.521506,1.0127677 5.499986,0.99125269 5.256155,0.81913735 5.227465,0.80479435 4.940606,0.65419335 4.919096,0.63985135 4.617894,0.51076475 h -0.01434 l -0.33706,-0.121915 -0.02151,-0.00717 -0.322716,-0.086058 H 3.900758 L 3.578042,0.23824975 3.563702,0.23107975 3.2625,0.19522175 H 3.24816 L 2.975644,0.18087875 H 2.961304 2.703132 2.695932 2.466445 l -0.0072,0.00717 -0.207972,0.00717 h -0.0072 l -0.179286,0.014343 -0.0072,0.00717 -0.150601,0.014343 -0.01434,0.00717 -0.1362581,0.028686 h -0.0072 l -0.107572,0.028686 h -0.01434 l -0.100401,0.035857 -0.01434,0.00717 -0.07889,0.028686 v 0 l -0.07171,0.028686 -0.02869,0.014343 -0.0502,0.028686 -0.01434,0.00717 -0.0502,0.035857 c -0.02151,0.014343 -0.04303,0.028686 -0.05737,0.0502 l -0.02869,0.043029 -0.01434,0.014343 -0.02151,0.035857 c -0.01434,0.028686 -0.02151,0.0502 -0.02868,0.078886 l -0.0072,0.043029 v 0 l -0.0072,0.043029 c -0.0072,0.021515 -0.0072,0.0502 0,0.071715 l 0.0072,0.0502 v 0 l 0.0072,0.0502 v 0.00717 l 0.0072,0.057371 0.0072,0.014343 0.01434,0.0502 0.0072,0.028686 0.02151,0.057372 -0.0072,-0.028686 0.01434,0.064544 0.0072,0.00717 0.03586,0.121915 c 0.02151,0.078886 0.08606,0.1362576 0.164945,0.1506004 0.07889,0.021515 0.157772,-0.00717 0.207972,-0.064543 0.05737,-0.064544 0.07171,-0.1434294 0.0502,-0.2223156 z"
       id="path16" />
    <path
       style="fill:#000000;fill-opacity:1;fill-rule:nonzero;stroke:none;stroke-width:0.114707"
       d="m 6.833751,2.8701648 v -0.057372 0.035857 -0.021514 l -0.01434,0.057371 0.0072,-0.014343 -0.04303,0.064544 0.0072,-0.014343 -0.19363,0.071715 h 0.0072 l -0.08606,-0.028686 h 0.0072 l -0.100401,-0.107572 0.0072,0.014343 -0.0072,-0.00717 0.01434,0.035857 -0.0072,-0.035857 0.01434,0.064543 v 0 l 0.01435,0.09323 v -0.014343 l 0.02151,0.1147436 v -0.014343 l 0.01434,0.1290864 v -0.014343 l 0.0072,0.1506009 v 0 l 0.01434,0.1506009 v -0.00717 l 0.0072,0.1649439 v 0 l 0.0072,0.1721153 v -0.00717 0.164944 -0.00717 l 0.0072,0.1721154 v 0.00717 0.1577725 0 0.1577721 0 l 0.0072,0.1434298 v 0.00717 0.1362581 0.00717 l 0.0072,0.1147433 v -0.00717 l 0.0072,0.107572 v 0.00717 l 0.0072,0.078886 v 0 l 0.0072,0.071714 v 0 l 0.0072,0.0502 v 0.00717 l 0.0072,0.043029 0.0072,0.035858 0.0072,0.014341 -0.0072,-0.028687 v 0.014341 c 0.01434,0.107572 0.107572,0.1792869 0.215144,0.1792869 0.100401,0 0.186458,-0.086058 0.200801,-0.1864585 v -0.014341 l -0.02151,0.071715 0.0072,-0.014341 v 0.00717 l 0.02151,-0.0502 0.0072,-0.00717 0.02869,-0.057372 v -0.00717 l 0.03586,-0.078886 c 0.04303,-0.1004005 0,-0.2223154 -0.107572,-0.2653442 -0.100401,-0.0502 -0.222316,0 -0.265345,0.1004005 l -0.03586,0.078886 v 0 l -0.02869,0.057372 0.0072,-0.014341 -0.02869,0.0502 v 0 l -0.0072,0.021517 0.04303,-0.064544 -0.0072,0.00717 c -0.06454,0.064543 -0.08606,0.1649437 -0.0502,0.2438298 0.04303,0.086058 0.129087,0.1362581 0.222316,0.1219152 0.09323,-0.014341 0.164944,-0.086058 0.179287,-0.1792869 v -0.014341 l -0.0072,0.028687 0.0072,-0.014341 0.0072,-0.035858 0.0072,-0.043029 v -0.00717 l 0.0072,-0.0502 v 0 l 0.0072,-0.071714 v 0 l 0.0072,-0.078886 v -0.00717 -0.1075721 0.00717 l 0.0072,-0.1147432 v -0.00717 l 0.0072,-0.1362581 v -0.00717 -0.1434297 0 -0.1577721 -0.014341 -0.1577721 0.00717 -0.1721153 -0.00717 l -0.0071,-0.1649527 v -0.00717 l -0.0072,-0.1721154 v 0 L 7.035241,3.4869192 v -0.00717 l -0.01434,-0.150601 v -0.00717 L 7.005867,3.1785382 V 3.1641956 L 6.984355,3.035109 V 3.020766 l -0.02151,-0.1075721 -0.0072,-0.014343 -0.02151,-0.086058 v -0.014343 l -0.02152,-0.064543 -0.02869,-0.057372 -0.02151,-0.028686 c -0.01434,-0.028687 -0.02869,-0.043029 -0.0502,-0.064544 L 6.797875,2.5689619 C 6.718985,2.5044189 6.611412,2.4972469 6.525354,2.5474479 h -0.0072 c -0.03586,0.021514 -0.07172,0.057372 -0.09323,0.093229 v 0.00717 c -0.02869,0.043029 -0.03586,0.093229 -0.02869,0.1434295 v 0.014343 -0.043029 0.014343 0.0502 l 0.0072,0.021515 v -0.071714 l -0.01434,0.057372 c -0.0072,0.086058 0.02151,0.1649439 0.09323,0.2151442 0.06454,0.0502 0.157774,0.057372 0.229488,0.014343 C 6.790702,3.0279366 6.833727,2.94905 6.833727,2.8701639 Z"
       id="path18" />
    <path
       style="fill:#000000;fill-opacity:1;fill-rule:nonzero;stroke:none;stroke-width:0.114707"
       d="m 12.018725,2.5904775 -0.01434,0.2008011 v 0.014343 l -0.0072,0.1147436 v 0 0.1434295 0 0.1434294 0.00717 0.1649439 -0.00717 0.1792869 0.00717 0.1721154 -0.00717 0.1792869 0.00717 0.164944 0 0.1506009 0.014341 l 0.01434,0.1290865 v -0.00717 0.1290866 0.00717 l 0.0072,0.1004009 v -0.00717 l 0.0072,0.093229 v 0.00717 l 0.0072,0.071715 v 0.014341 l 0.0072,0.057372 0.0072,0.028687 0.0072,0.028687 v 0.00717 l 0.01434,0.028687 0.0072,0.028687 0.0072,0.014341 0.02152,0.028687 v 0.00717 c 0.05737,0.071715 0.143429,0.1004005 0.229487,0.071715 0.08606,-0.028687 0.14343,-0.1075721 0.14343,-0.1936298 v -0.014344 l -0.0072,0.043029 0.0072,-0.021517 v 0.00717 l 0.0072,-0.035858 c 0.02152,-0.1075721 -0.04303,-0.2151442 -0.1506,-0.2438298 -0.107573,-0.028687 -0.222316,0.035858 -0.251002,0.1434293 l -0.0072,0.035858 v 0.014341 l -0.0072,0.021516 v 0.035858 0.014341 c 0,0.078887 0.04303,0.1506009 0.121914,0.1864586 0.07172,0.035858 0.157774,0.021517 0.215144,-0.035858 0.06454,-0.050197 0.08606,-0.1362546 0.06454,-0.2079695 l -0.0072,-0.014341 0.0072,0.028687 v -0.014341 0.035858 -0.028687 0.00717 -0.035858 -0.00717 -0.057372 0.021516 l 0.0072,-0.071715 v -0.00717 -0.093229 0.00717 l 0.0072,-0.1004009 v -0.00717 l 0.0072,-0.1290865 v 0.00717 l 0.0072,-0.1290864 v -0.014341 -0.1506009 0 l 0.0072,-0.1649436 v -0.00718 -0.1792868 0.00717 -0.1721153 -0.00717 -0.179287 0.00717 -0.1649439 -0.00717 l -0.0072,-0.1434295 v 0 -0.1434295 0 -0.1147436 0.00717 -0.2008011 c 0,-0.1290867 -0.100401,-0.2366587 -0.229487,-0.2438302 -0.129085,-0.00717 -0.24383,0.093229 -0.251001,0.2223153 z"
       id="path20" />
    <path
       style="fill:#000000;fill-opacity:1;fill-rule:nonzero;stroke:none;stroke-width:0.114707"
       d="m 7.945329,3.1068235 0.05737,-0.1219151 -0.0072,0.014343 0.02869,-0.0502 -0.02151,0.028686 0.03586,-0.0502 -0.01434,0.014343 0.02869,-0.028686 -0.0072,0.00717 0.02869,-0.028686 -0.03586,0.028686 0.02151,-0.014343 -0.03586,0.021514 0.02869,-0.00717 -0.02151,0.00717 0.02151,-0.00717 -0.07889,0.00717 h 0.02869 l -0.107572,-0.028686 0.02869,0.014343 -0.05737,-0.0502 0.01434,0.021514 -0.03586,-0.064544 0.01434,0.043029 v -0.00717 l 0.02151,0.064543 -0.0072,-0.028686 0.02151,0.093229 v 0 l 0.02151,0.1075721 v -0.014343 l 0.02152,0.1147436 v 0 l 0.02151,0.1290866 v -0.00717 l 0.01434,0.1434294 v 0 l 0.02151,0.1434299 v -0.00717 l 0.02151,0.1434295 v -0.00717 l 0.0072,0.1434293 v 0.00717 l 0.01434,0.1434293 v -0.014341 l 0.01434,0.1434293 v -0.00717 l 0.0072,0.1362576 v -0.014341 0.1290865 0.014341 l 0.0072,0.1219153 v -0.014341 0.1219153 0.00717 l 0.0072,0.100401 v -0.00717 l 0.0072,0.093229 v -0.00717 0.078886 0.014341 l 0.0072,0.064544 v -0.035858 l -0.0072,0.050202 v 0 0.043029 l 0.0072,-0.0502 -0.0072,0.028687 0.02869,-0.057372 -0.01434,0.021517 0.06454,-0.057372 -0.01434,0.014341 0.05737,-0.021516 -0.02151,0.00717 0.05737,-0.00717 h -0.03586 0.02152 l -0.04304,-0.00717 C 8.074455,4.8925291 7.959712,4.9570741 7.938197,5.0718176 7.916677,5.1793897 7.981227,5.2941329 8.09597,5.3156474 l 0.03586,0.00717 0.02151,0.00717 H 8.1892 8.24657 8.27526 l 0.05737,-0.021516 0.01434,-0.00717 c 0.02869,-0.014341 0.0502,-0.035858 0.07171,-0.057371 l 0.01434,-0.021513 0.02151,-0.035858 0.01434,-0.028687 0.02151,-0.035858 0.0072,-0.0502 v 0 l 0.01434,-0.057372 0.0072,-0.028687 0.0072,-0.064544 v 0.00717 l 0.0072,-0.071715 0.0072,-0.021513 v -0.093227 0.00717 l 0.0072,-0.1004009 v -0.00717 -0.1219153 0 -0.1219149 0 -0.1290865 -0.00717 -0.1290865 -0.014341 L 8.54072,3.981753 V 3.974583 L 8.526205,3.8311444 v 0 l -0.0072,-0.1506031 -0.0072,-0.00717 -0.01434,-0.1434294 v -0.00717 L 8.475945,3.3793424 v 0 l -0.02151,-0.1362581 -0.0072,-0.00717 -0.02152,-0.1290865 v 0 l -0.02151,-0.121915 -0.0072,-0.014343 -0.02151,-0.107572 v 0.00717 l -0.02869,-0.093229 -0.0072,-0.035858 -0.02869,-0.064543 -0.0072,-0.014343 -0.02151,-0.043029 c -0.01434,-0.028685 -0.03586,-0.057372 -0.05737,-0.071714 l -0.02152,-0.021515 c -0.02151,-0.021514 -0.04303,-0.028686 -0.06454,-0.043029 l -0.02869,-0.00717 C 8.074225,2.4613948 8.038375,2.4542238 8.002513,2.4542238 h -0.02869 c -0.03586,0.00717 -0.06454,0.014343 -0.09323,0.028686 l -0.02151,0.014343 -0.01434,0.00717 -0.02151,0.014343 -0.04303,0.035857 -0.02151,0.021514 -0.02152,0.028686 -0.02151,0.028686 -0.01434,0.014343 -0.02151,0.043029 0.01434,-0.014343 -0.03586,0.0502 -0.02151,0.028686 -0.02152,0.0502 0.02152,-0.028686 -0.07889,0.1075721 c -0.04303,0.071715 -0.0502,0.1649439 -0.0072,0.2366585 0.04303,0.071715 0.121915,0.1147436 0.200801,0.1147436 0.08606,-0.00717 0.164944,-0.057372 0.19363,-0.1290865 z"
       id="path22" />
    <path
       style="fill:#000000;fill-opacity:1;fill-rule:nonzero;stroke:none;stroke-width:0.114707"
       d="m 7.048896,4.4478889 0.04303,-0.0502 -0.04303,0.035858 0.02869,-0.014341 -0.02151,0.014341 0.02869,-0.021516 -0.02151,0.014341 0.04303,-0.014341 0.0072,-0.00717 0.04303,-0.014341 -0.03586,0.00717 0.05737,-0.00717 0.01434,-0.00717 0.06454,-0.014341 h -0.02152 l 0.07889,-0.00717 v 0 l 0.09323,-0.014341 v 0 l 0.107572,-0.014341 h 0.0072 l 0.121915,-0.014341 h -0.0072 L 7.76608,4.3044749 v 0 l 0.150601,-0.014341 v 0 l 0.1506,-0.014341 v 0 l 0.150601,-0.014341 h -0.0072 l 0.157773,-0.00717 h 0.0072 l 0.150601,-0.021513 v 0.00717 l 0.136258,-0.014341 0.01434,-0.00717 0.136258,-0.021516 C 8.927854,4.1825669 9.00674,4.0678219 8.985225,3.9530787 8.970885,3.8383189 8.856138,3.7594327 8.741394,3.7737757 l -0.136258,0.021514 h 0.01434 l -0.136258,0.014343 h -0.0072 l -0.1506,0.014343 h 0.01434 l -0.150601,0.00717 h -0.0072 l -0.150572,0.014338 v 0 l -0.1506,0.014343 v 0 l -0.150601,0.00717 v 0 l -0.136259,0.014343 h -0.0072 l -0.129086,0.021515 h 0.0072 l -0.114743,0.014343 v 0 l -0.09323,0.014341 h -0.0072 l -0.08606,0.014341 h -0.01434 l -0.06454,0.021516 0.0072,-0.00717 -0.06454,0.014341 -0.02869,0.014341 -0.04303,0.014341 h -0.0072 l -0.04303,0.021516 -0.02869,0.014341 -0.03586,0.021516 h -0.0072 l -0.02151,0.021513 0.0072,-0.00717 -0.05737,0.035858 c -0.07171,0.043029 -0.114743,0.1290865 -0.1004,0.2151442 0.0072,0.086058 0.07171,0.1577726 0.1506,0.1864586 0.08606,0.028687 0.179287,0 0.236659,-0.064543 z"
       id="path24" />
    <path
       style="fill:#000000;fill-opacity:1;fill-rule:nonzero;stroke:none;stroke-width:0.114707"
       d="m 9.300738,3.1211663 0.0072,0.093229 v 0.014343 l 0.0072,0.064544 v -0.00717 l 0.0072,0.078886 v 0 l 0.0072,0.1004005 v -0.00717 l 0.0072,0.1290865 v 0 l 0.0072,0.1434295 v -0.00717 l 0.0072,0.1506008 v 0.00717 l 0.0072,0.1649438 v -0.014341 l 0.0072,0.1649435 v -0.00717 0.1649437 0.00717 0.1434295 0 0.1506008 0 l 0.0072,0.1290865 v -0.00717 0.1219153 0.00717 l 0.0072,0.093229 v 0 0.078886 -0.00717 0.057372 0.014341 l 0.0072,0.043029 v -0.035858 l -0.0072,0.028687 0.0072,-0.014341 -0.0072,0.021512 c -0.01434,0.093229 0.03586,0.1864585 0.121915,0.2294874 0.09323,0.035858 0.200801,0.00717 0.251001,-0.078886 0.05737,-0.078886 0.04303,-0.1864583 -0.02151,-0.2581731 l -0.0072,-0.00717 v 0 l -0.0072,-0.00717 0.03586,0.057372 -0.01434,-0.028687 C 9.688264,4.9929264 9.566347,4.9498975 9.465946,5.000098 c -0.1004,0.0502 -0.143429,0.1721153 -0.09323,0.2796874 l 0.01434,0.021516 c 0.0072,0.021513 0.02151,0.035858 0.03586,0.057372 l 0.0072,0.00717 v 0 h 0.0072 c 0.05737,0.057372 0.136258,0.078886 0.207973,0.057372 0.07171,-0.021517 0.121915,-0.086058 0.143429,-0.1577721 v -0.021517 -0.00717 l 0.0072,-0.028687 v -0.021516 l 0.0072,-0.043029 -0.0072,0.021517 0.01434,-0.064544 v -0.021519 l 0.0072,-0.078886 v 0 -0.093229 -0.00717 l 0.0072,-0.1219153 v 0.00717 -0.1290865 0 -0.1506009 0 l 0.0072,-0.1434291 V 4.3546615 4.1897177 4.1968877 4.031944 4.017603 l -0.0072,-0.1649418 v 0.00717 l -0.0072,-0.1506015 v -0.00717 l -0.0072,-0.1434295 v -0.00717 L 9.803058,3.429545 V 3.422375 L 9.788718,3.3219745 v 0 l -0.0072,-0.086058 v -0.00717 l -0.01434,-0.064544 -0.0072,-0.028686 -0.02151,-0.093229 C 9.702349,2.9347084 9.594778,2.8629936 9.480034,2.8845081 9.372462,2.9060224 9.293576,3.0064229 9.300747,3.1211665 Z"
       id="path26" />
    <path
       style="fill:#000000;fill-opacity:1;fill-rule:nonzero;stroke:none;stroke-width:0.114707"
       d="m 9.365281,3.0351087 -0.0072,-0.071715 v 0.021514 -0.035857 0.014343 l 0.0072,-0.043029 v 0 -0.035857 l -0.0072,0.035857 0.0072,-0.028686 h 0.0072 v -0.035857 l -0.02869,0.071715 0.02152,-0.021514 -0.06454,0.064543 0.02869,-0.021515 -0.02151,0.014343 0.03586,-0.021514 -0.02869,0.014343 0.0502,-0.021514 -0.04303,0.014343 0.06454,-0.014343 h -0.0072 l 0.07171,-0.00717 h -0.01434 l 0.07889,-0.00717 h 0.0072 l 0.100401,-0.014343 v 0 l 0.114744,-0.014343 h -0.0072 l 0.1219146,-0.00717 h -0.0072 l 0.129086,-0.00717 h 0.0072 l 0.1290864,-0.014343 h -0.0072 l 0.143429,-0.00717 v 0 l 0.136259,-0.014343 -0.0072,0.00717 0.14343,-0.00717 v 0 l 0.114743,-0.00717 h 0.0072 l 0.107566,-0.00717 h -0.01434 0.1004 -0.0072 l 0.08606,0.00717 -0.02869,-0.00717 0.06454,0.014343 -0.06454,-0.021514 0.0502,0.028686 -0.0502,-0.043029 0.03586,0.043029 -0.01434,-0.014343 0.04303,0.043029 -0.02869,-0.035857 0.03586,0.057372 c 0.05737,0.1075722 0.186458,0.1506011 0.29403,0.093229 0.107573,-0.057372 0.150601,-0.1936298 0.09323,-0.3012019 L 11.31587,2.6335178 11.28718,2.5976608 11.25132,2.5546318 11.23698,2.5331168 11.19395,2.4972598 11.15092,2.4614028 11.09355,2.4255448 11.03618,2.4040298 10.97164,2.3896868 H 10.9573 l -0.07889,-0.014343 -0.02151,-0.00717 -0.1004,-0.00717 h -0.0072 -0.107572 -0.02152 -0.121915 0.0072 -0.14343 -0.0072 l -0.136258,0.014343 v 0 l -0.14343,0.00717 h -0.01434 l -0.1290874,0.014343 h 0.01434 l -0.1362566,0.00717 h -0.0072 l -0.121914,0.014343 v 0 l -0.114744,0.014343 h -0.0072 l -0.09323,0.014343 v 0 l -0.07889,0.00717 -0.01434,0.00717 -0.07889,0.014343 h -0.0072 l -0.05737,0.014343 -0.04303,0.014343 -0.0502,0.021514 -0.03586,0.014343 -0.03586,0.028686 -0.03586,0.021515 -0.02152,0.028686 c -0.02151,0.021514 -0.04303,0.0502 -0.05737,0.078886 l -0.0072,0.028686 c -0.0072,0.021514 -0.01434,0.043029 -0.01434,0.064544 v 0.035857 0 l -0.0072,0.035857 v 0.021514 l 0.0072,0.035857 v 0 0.043029 -0.014343 0.035857 -0.021514 l -0.0072,0.071715 c -0.0072,0.086058 0.03586,0.1721155 0.107572,0.2151443 0.07172,0.043029 0.164944,0.043029 0.236659,0 0.07171,-0.043029 0.107572,-0.1290866 0.1004,-0.2151443 z"
       id="path28" />
    <path
       style="fill:#000000;fill-opacity:1;fill-rule:nonzero;stroke:none;stroke-width:0.114707"
       d="m 11.817924,4.9929206 -0.0072,0.043029 0.01434,-0.057372 -0.0072,0.014341 v 0.00717 l -0.0072,0.021516 0.01434,-0.0502 v 0.014341 c -0.01434,0.028687 -0.02869,0.057372 -0.02869,0.093229 v 0.014341 c -0.0072,0.0502 0.0072,0.1075721 0.03586,0.1506009 l 0.01434,0.014341 c 0.02152,0.043029 0.06454,0.078886 0.107572,0.093229 l 0.02869,0.014341 0.0502,0.014341 0.0502,0.014341 h 0.01434 l 0.06454,0.00717 0.02151,0.00717 h 0.08606 0.0072 0.1004 0.0072 0.121915 v 0 h 0.143429 0.01434 l 0.157773,-0.014341 0.0072,-0.00717 0.179286,-0.014341 0.01434,-0.00717 0.172115,-0.028687 h 0.0072 l 0.193629,-0.043029 h 0.0072 l 0.172115,-0.043029 v 0 l 0.179287,-0.035858 0.02151,-0.00717 0.157773,-0.0502 h 0.0072 l 0.150601,-0.057372 0.02151,-0.00717 0.129087,-0.057372 h 0.0072 l 0.114745,-0.057372 0.0072,-0.00717 0.100399,-0.057372 0.0072,-0.00717 0.09323,-0.057372 0.02869,-0.021516 0.07171,-0.071715 v 0 l 0.07889,-0.071715 c 0.09323,-0.086058 0.09323,-0.2294874 0.0072,-0.3155451 -0.07889,-0.086058 -0.222316,-0.093229 -0.308374,-0.00717 l -0.07889,0.071716 v 0 l -0.07172,0.071715 0.02869,-0.021513 -0.09323,0.057372 0.02152,-0.014341 -0.09323,0.0502 0.01434,-0.00717 -0.114745,0.0502 0.02151,-0.00717 -0.136258,0.035858 h 0.0072 l -0.157773,0.043029 0.0072,-0.00717 -0.157772,0.035858 v 0 l -0.179287,0.043029 v 0 l -0.179287,0.035858 h 0.0072 l -0.193629,0.035858 h 0.0072 l -0.172411,0.028685 h 0.0072 l -0.179286,0.021517 h 0.01434 l -0.157773,0.00717 h 0.0072 l -0.136258,0.00717 h 0.01434 -0.121916 -0.0072 -0.1004 0.02151 l -0.08606,-0.00717 h 0.01434 l -0.06454,-0.00717 h 0.01434 l -0.0502,-0.00717 v 0 h -0.03586 l 0.1004,0.035858 -0.01434,-0.00717 0.07171,0.071715 -0.0072,-0.014341 0.01434,0.021517 -0.0072,-0.014341 0.01434,0.0502 v -0.021528 l -0.0072,-0.00717 v -0.014342 l 0.0072,0.057372 v -0.043032 c -0.0072,-0.1219149 -0.107574,-0.2151442 -0.222317,-0.2151442 -0.121914,0 -0.222315,0.093229 -0.222315,0.2151442 z"
       id="path30" />
    <path
       style="fill:#000000;fill-opacity:1;fill-rule:nonzero;stroke:none;stroke-width:0.114707"
       d="m 12.13347,2.977737 0.02151,-0.086058 -0.01434,0.028686 0.02151,-0.043029 -0.02151,0.035857 0.02868,-0.035857 -0.01434,0.014343 0.02869,-0.035857 -0.04303,0.043029 0.04303,-0.028686 -0.03586,0.021514 0.05737,-0.028686 h -0.0072 L 12.25535,2.834307 12.22666,2.84865 12.30555,2.819964 12.29835,2.827134 12.38441,2.80562 H 12.3629 l 0.100401,-0.014343 h -0.0072 l 0.114745,-0.014343 -0.01434,0.00717 0.129087,-0.00717 0.0072,-0.00717 0.129088,-0.00717 h -0.01434 l 0.143429,-0.00717 h 0.0072 l 0.136258,-0.00717 h -0.0072 l 0.136259,-0.00717 v 0 h 0.129086 0.0072 l 0.121916,-0.00717 h -0.0072 l 0.11474,-0.00717 v 0 h 0.08606 -0.01434 0.07889 -0.0072 l 0.05737,0.00717 -0.06454,-0.014343 0.0502,0.014343 -0.06454,-0.028686 0.04303,0.028686 -0.01434,-0.014343 0.04303,0.043029 c 0.09323,0.078886 0.236659,0.071715 0.315546,-0.014343 0.08606,-0.093229 0.07889,-0.2366586 -0.01434,-0.3155447 l -0.04303,-0.043029 -0.01434,-0.00717 -0.03586,-0.035857 c -0.02153,-0.014343 -0.04304,-0.021515 -0.06455,-0.028686 l -0.0502,-0.021514 -0.0502,-0.00717 -0.05737,-0.00717 v 0 l -0.07888,-0.00717 h -0.01434 -0.08606 v 0 l -0.114744,-0.00719 h -0.0072 -0.121915 0.0072 -0.129085 -0.01434 -0.136259 -0.0072 l -0.136258,0.014343 h 0.0072 -0.143429 -0.01434 l -0.129087,0.014343 h 0.0072 l -0.136257,0.00717 h -0.0072 l -0.114744,0.014343 -0.01434,0.00717 -0.1004,0.014343 -0.01434,0.00717 -0.08606,0.014343 -0.02151,0.00717 -0.07889,0.028686 -0.03586,0.014343 -0.06454,0.028686 -0.02151,0.014343 -0.0502,0.035857 -0.03586,0.028686 -0.03586,0.043029 -0.03586,0.043029 -0.02151,0.035857 -0.0072,0.021514 -0.02151,0.035857 -0.0072,0.014343 -0.01434,0.043029 -0.0072,0.028686 -0.02151,0.086058 c -0.02151,0.078886 0,0.1577725 0.05737,0.2151443 0.05737,0.057372 0.14343,0.078886 0.215144,0.057372 0.07889,-0.021515 0.136259,-0.086058 0.157773,-0.1649438 z"
       id="path32" />
    <path
       style="fill:#000000;fill-opacity:1;fill-rule:nonzero;stroke:none;stroke-width:0.114707"
       d="m 9.8672836,3.9745718 -0.02151,-0.014341 0.0502,0.043029 -0.01434,-0.00717 0.0502,0.1936298 v -0.00717 l -0.03586,0.086058 0.0072,-0.00717 -0.07889,0.064544 0.01434,-0.00717 -0.02151,0.00717 0.03586,-0.014341 -0.01434,0.00717 0.04303,-0.014341 h -0.01434 l 0.06454,-0.014341 h -0.0072 l 0.07889,-0.021512 v 0 l 0.08606,-0.028687 h -0.0072 l 0.08606,-0.021518 h 0.0072 l 0.1004,-0.028687 h -0.0072 l 0.107572,-0.028687 v 0 l 0.100401,-0.021516 v 0 l 0.100392,-0.021515 h -0.0072 l 0.09323,-0.021512 v 0 l 0.08606,-0.021517 -0.01434,0.00717 0.07172,-0.00717 v 0 l 0.05737,-0.014341 v 0 l 0.06454,-0.00717 v 0 l 0.05737,-0.00717 c 0.114789,-0.021525 0.193675,-0.1290969 0.179332,-0.2438404 -0.02152,-0.1147435 -0.129086,-0.1936297 -0.24383,-0.1721153 l -0.05737,0.00717 v 0 l -0.05737,0.00717 v 0 l -0.05737,0.00717 v 0 l -0.06454,0.00717 h -0.01434 l -0.08606,0.014343 h 0.01434 l -0.09323,0.00717 -0.01434,0.00717 -0.107572,0.014343 v 0 l -0.100403,0.021515 h -0.01434 l -0.107573,0.028686 v 0 l -0.100403,0.021514 v 0 l -0.08606,0.014343 v 0 l -0.08606,0.021514 h -0.02152 l -0.07171,0.021515 h 0.0072 l -0.06454,0.014343 -0.03586,0.014342 -0.04303,0.021515 v 0 l -0.02869,0.00717 -0.0502,0.035857 -0.01434,0.00717 c -0.02151,0.021516 -0.04303,0.043029 -0.05737,0.064544 l -0.0072,0.014341 c -0.02869,0.0502 -0.03586,0.1147436 -0.02869,0.1721153 l 0.0072,0.00717 c 0.0072,0.0502 0.03586,0.1004005 0.07889,0.1290865 l 0.0072,0.00717 c 0.03586,0.035858 0.08606,0.0502 0.136257,0.0502 l 0.02869,0.00717 c 0.1004006,0 0.1864586,-0.057372 0.2223156,-0.1577725 0.02869,-0.093229 -0.0072,-0.2008015 -0.08606,-0.2510014 z"
       id="path34" />
    <path
       style="fill:#000000;fill-opacity:1;fill-rule:nonzero;stroke:none;stroke-width:0.114707"
       d="m 9.630626,5.2439224 0.03586,0.014341 0.04303,0.014341 0.02151,0.00717 -0.04303,-0.014341 0.01434,0.00717 0.0502,0.021512 h 0.02869 l -0.02869,-0.00717 0.02152,0.00717 0.03586,0.014341 0.04303,0.00717 h 0.01434 l 0.0502,0.00717 h 0.02151 0.06454 v 0 h 0.07889 0.0072 0.08606 0.0072 l 0.09323,-0.00717 h 0.01434 l 0.114751,-0.014336 v 0 l 0.121915,-0.014341 h -0.0072 l 0.136258,-0.021513 h 0.0072 l 0.121914,-0.021517 h 0.0072 l 0.129087,-0.028687 v 0 l 0.121915,-0.021513 h 0.0072 l 0.114629,-0.028684 h -0.01434 l 0.107572,-0.021516 h 0.0072 l 0.09323,-0.021513 0.01434,-0.00717 0.09323,-0.028687 0.02151,-0.00717 0.08606,-0.043029 0.01434,-0.00717 0.07889,-0.043029 c 0.107568,-0.057371 0.150597,-0.1936288 0.09323,-0.3012009 -0.05737,-0.1075721 -0.193629,-0.1506009 -0.301202,-0.093229 l -0.07889,0.043029 0.0072,-0.00717 -0.08606,0.043029 0.02151,-0.00717 -0.08606,0.028687 0.02152,-0.00717 -0.09323,0.021516 0.01434,-0.00717 -0.1004,0.021513 v -0.00718 l -0.114743,0.021516 v 0 l -0.121915,0.014341 v 0 l -0.129087,0.021516 h -0.0072 l -0.129087,0.021513 h 0.01434 l -0.129087,0.014341 h -0.0072 l -0.114744,0.021512 0.0072,-0.00717 -0.114744,0.014341 h 0.02151 l -0.09323,0.00717 0.01434,-0.00717 h -0.08606 -0.0072 -0.07889 v 0 h -0.06454 l -0.02151,0.00717 h -0.0502 l -0.01434,0.00717 -0.04303,0.00717 0.04303,-0.00717 h -0.02869 l -0.04303,0.00717 -0.02869,0.00717 0.1434286,0.014341 -0.01434,-0.00717 -0.04303,-0.014341 -0.02151,-0.00717 0.07889,0.043029 -0.02869,-0.028687 c -0.07172,-0.0502 -0.1577716,-0.057372 -0.2366576,-0.021513 -0.07171,0.035858 -0.121916,0.1147436 -0.121916,0.2008013 0,0.078886 0.04303,0.1577726 0.121916,0.2008014 z"
       id="path36" />
    <path
       style="fill:#000000;fill-opacity:1;fill-rule:nonzero;stroke:none;stroke-width:0.114707"
       d="m 12.305584,3.8383136 -0.01434,-0.014343 c -0.09323,-0.071715 -0.229488,-0.057372 -0.308374,0.028686 -0.08606,0.078887 -0.09323,0.2151442 -0.02151,0.3083735 0.06454,0.093229 0.2008,0.1219149 0.301202,0.071715 l 0.0072,-0.00717 -0.129086,0.028687 h 0.01434 0.05737 l 0.04303,-0.00717 v 0 l 0.05737,-0.014341 h 0.0072 l 0.08606,-0.014341 v 0 l 0.09323,-0.021516 v 0 l 0.107571,-0.021513 h 0.0072 l 0.114743,-0.028687 -0.0072,0.00717 0.129085,-0.028687 v 0 l 0.129088,-0.021516 0.0072,-0.00717 0.114743,-0.021517 v 0 l 0.114744,-0.028687 h -0.01434 l 0.1004,-0.014341 v 0 l 0.08606,-0.014341 v 0 l 0.07172,-0.014341 h -0.0072 l 0.07171,-0.00717 0.01434,-0.00717 0.06454,-0.00717 c 0.114684,-0.028697 0.186398,-0.1434405 0.157713,-0.258184 -0.02151,-0.1147436 -0.136258,-0.1864583 -0.251001,-0.1577724 l -0.05737,0.00717 h 0.01434 l -0.07171,0.00717 h -0.0072 l -0.07172,0.014343 h 0.0072 l -0.08606,0.00717 h 0.0072 l -0.100401,0.00717 -0.01434,0.00717 -0.114743,0.014343 h 0.0072 l -0.114744,0.014343 v 0 l -0.136257,0.021514 v 0 L 12.6427,3.6877047 v 0 l -0.114743,0.014343 h -0.0072 l -0.114744,0.021515 h 0.0072 l -0.1004,0.014343 -0.0072,0.00717 -0.08606,0.014343 h 0.02151 l -0.05737,0.00717 h -0.02151 l -0.04303,0.00717 h 0.03586 -0.01434 c -0.08606,0.00717 -0.157773,0.0502 -0.200802,0.1290864 v 0 c -0.0502,0.1004006 -0.02869,0.222316 0.0502,0.2940304 0.08606,0.078887 0.215144,0.078887 0.301202,0.014341 l 0.01434,-0.00717 c 0.05737,-0.043029 0.09323,-0.1147437 0.09323,-0.1864581 0,-0.071715 -0.03586,-0.1434298 -0.09323,-0.1792871 z"
       id="path38" />
    <path
       style="fill:#000000;fill-opacity:1;fill-rule:nonzero;stroke:none;stroke-width:0.114707"
       d="m 15.260231,2.6837066 0.04303,-0.1434295 -0.01434,0.035857 0.03586,-0.064544 -0.02869,0.035857 0.0502,-0.064544 -0.04303,0.043029 0.06454,-0.043029 -0.03586,0.014343 0.08606,-0.043029 -0.03586,0.014343 0.09323,-0.021514 h -0.01434 l 0.107573,-0.021514 -0.03586,0.00717 0.121915,-0.00717 v 0 l 0.143429,-0.00717 h -0.01434 0.150601 v 0 h 0.164944 -0.01434 l 0.164945,0.00717 h -0.01434 l 0.164944,0.021514 -0.02869,-0.00717 0.157772,0.035857 -0.02152,-0.00717 0.150602,0.0502 -0.02869,-0.014343 0.129086,0.057372 -0.02151,-0.014343 0.114744,0.071715 -0.02869,-0.021514 0.07889,0.071715 -0.02869,-0.035857 0.06454,0.078886 -0.03586,-0.057372 0.03586,0.078886 -0.01434,-0.035857 0.02151,0.086058 -0.0072,-0.0502 0.0072,0.078886 v -0.035857 l -0.0072,0.086058 0.0072,-0.0502 -0.02151,0.071715 0.02151,-0.043029 -0.04303,0.071715 0.02868,-0.043029 -0.06454,0.071715 0.02151,-0.021515 -0.07172,0.064544 0.02869,-0.021514 -0.09322,0.057372 0.0072,-0.00717 -0.107571,0.057372 0.02869,-0.014343 -0.114745,0.0502 0.0072,-0.00717 -0.121915,0.043029 h 0.0072 l -0.114742,0.035858 h 0.0072 l -0.129086,0.028686 v 0 l -0.121915,0.035857 h 0.0072 l -0.121914,0.028686 v 0 l -0.107573,0.021515 h 0.01434 l -0.1004,0.014343 h -0.02151 l -0.09323,0.021514 h 0.01434 l -0.09323,0.00717 -0.02152,0.00717 -0.09323,0.021514 c -0.121916,0.028686 -0.19363,0.1434294 -0.172116,0.2653445 0.02868,0.1147435 0.150601,0.1936298 0.265344,0.1649439 l 0.100401,-0.021514 h -0.02151 l 0.09323,-0.00717 0.02152,-0.00717 0.1004,-0.021514 -0.02869,0.00717 0.107572,-0.014343 h 0.01434 l 0.107574,-0.021514 v 0 l 0.129087,-0.021514 h 0.0072 l 0.121915,-0.028686 h 0.0072 l 0.121916,-0.028686 h 0.0072 l 0.121914,-0.035857 0.02151,-0.00717 0.121914,-0.035857 0.0072,-0.00717 0.114744,-0.043029 0.02151,-0.00717 0.107572,-0.057372 0.01434,-0.00717 0.09323,-0.0502 0.02869,-0.028686 0.07888,-0.064544 0.02152,-0.014343 0.06454,-0.071715 0.03586,-0.043029 0.04303,-0.071715 0.02151,-0.043029 0.02868,-0.078886 0.01434,-0.0502 0.0072,-0.078886 0.0072,-0.043029 -0.0072,-0.086058 -0.0072,-0.043029 -0.02152,-0.086058 -0.01434,-0.043029 -0.02868,-0.078886 c -0.01434,-0.021514 -0.02152,-0.043029 -0.04303,-0.064543 l -0.06454,-0.078886 -0.02869,-0.028686 -0.07888,-0.071715 -0.04303,-0.021514 -0.121915,-0.071715 -0.02152,-0.014343 -0.129086,-0.0502 -0.03586,-0.014343 -0.143429,-0.043029 h -0.01434 l -0.157761,-0.035871 h -0.02868 L 16.293168,1.937873 h -0.01434 L 16.113884,1.930703 H 16.099544 15.9346 v 0 H 15.784 15.76966 l -0.143437,0.014343 v 0 l -0.129086,0.00717 -0.04303,0.00717 -0.107573,0.028686 -0.02151,0.00717 -0.08606,0.035857 -0.0502,0.021514 -0.07889,0.057372 -0.02151,0.014343 -0.05737,0.0502 -0.04303,0.043029 -0.04303,0.071715 -0.01434,0.014343 -0.03586,0.064543 -0.01434,0.043029 -0.04303,0.1434294 c -0.02869,0.071715 -0.0072,0.1577724 0.0502,0.2151442 0.0502,0.057372 0.136259,0.086058 0.207973,0.064544 0.07889,-0.021515 0.14343,-0.078886 0.164944,-0.1506009 z"
       id="path40" />
    <path
       style="fill:#000000;fill-opacity:1;fill-rule:nonzero;stroke:none;stroke-width:0.114707"
       d="m 15.633147,2.7841072 v -0.071715 0.021514 l 0.0072,-0.028686 v -0.014343 -0.021515 0.014343 l 0.0072,-0.028686 -0.01434,0.0502 v -0.014343 l -0.02151,0.043029 0.0072,-0.00717 c 0.0502,-0.086058 0.05737,-0.1864584 0.0072,-0.2725161 -0.0502,-0.078886 -0.14343,-0.1290867 -0.243831,-0.1147436 -0.09323,0.00717 -0.179286,0.071715 -0.207973,0.1577724 l -0.0072,0.014343 c -0.01434,0.028686 -0.01434,0.057372 -0.01434,0.086058 l -0.0072,0.028686 v 0.00717 0.078886 0 0.1004006 0 0.1219151 0.00717 0.1362581 0 0.1434294 0 0.1577724 -0.014343 l -0.0072,0.1434293 v 0.014343 0.1577724 -0.00717 l -0.0072,0.1506011 v 0.00717 0.1577723 -0.021516 l -0.0072,0.1434294 v 0.014341 0.1434293 -0.00717 l -0.0072,0.1290868 v 0.00717 0.1147437 -0.00717 0.1004005 0 0.078887 l 0.0072,-0.035858 -0.01434,0.071715 v 0 l -0.01434,0.064544 0.0072,-0.035858 -0.02151,0.057372 c -0.03586,0.1075722 0.01434,0.229487 0.129086,0.2725158 0.107572,0.043029 0.236659,-0.00717 0.279688,-0.1219148 l 0.02151,-0.057372 0.0072,-0.035858 0.01434,-0.064543 v 0 l 0.01434,-0.071714 v -0.021517 l 0.0072,-0.078886 v 0 l 0.0072,-0.1004004 v 0.014341 l 0.02151,-0.1075687 v -0.014341 l 0.01434,-0.1219149 v 0 l 0.01434,-0.1434297 v 0 l 0.01434,-0.1434293 v -0.00717 l 0.01434,-0.1577722 v 0.00717 l 0.0072,-0.1506009 v -0.00717 l 0.01435,-0.1577724 h -0.0072 l 0.01434,-0.1434266 v -0.014343 -0.1577724 0 -0.1434294 0 -0.136258 -0.00717 -0.1219151 0 -0.1004007 0 -0.078886 -0.00717 l -0.0072,-0.028686 c 0,-0.028686 0,-0.057372 -0.01434,-0.086058 l -0.0072,-0.014343 c -0.02869,-0.086058 -0.114743,-0.150601 -0.207972,-0.1577724 -0.1004,-0.014343 -0.193629,0.035857 -0.24383,0.1147435 -0.0502,0.086058 -0.04303,0.1864584 0.0072,0.272516 l 0.0072,0.00717 -0.02151,-0.043029 v 0.014343 l -0.01434,-0.0502 0.0072,0.028686 v -0.014343 0.021514 0.014343 l 0.0072,0.028686 v -0.021514 l 0.0072,0.071715 c 0.0072,0.1147436 0.100401,0.2008012 0.222316,0.2008012 0.114743,0 0.207972,-0.086058 0.222315,-0.2008012 z"
       id="path42" />
    <path
       style="fill:#000000;fill-opacity:1;fill-rule:nonzero;stroke:none;stroke-width:0.114707"
       d="m 19.003739,2.1673605 h -0.06454 c -0.03586,0 -0.06454,0.014343 -0.100401,0.028686 l -0.03586,0.021514 c -0.02869,0.014343 -0.0502,0.028686 -0.07171,0.057372 l -0.03586,0.0502 -0.02869,0.028686 -0.04303,0.086058 v -0.00717 l -0.06454,0.1147436 -0.0072,0.014343 -0.07171,0.1506009 v -0.00717 l -0.08606,0.1792867 v 0 l -0.0932,0.1936291 v 0 l -0.107573,0.2079725 v 0 L 18.092964,3.494085 v 0 l -0.107571,0.2151442 v 0 L 17.88499,3.9100307 v -0.00717 l -0.1004,0.1864582 v 0 l -0.08606,0.1649442 v -0.00717 l -0.07889,0.1434294 0.0072,-0.00717 -0.07171,0.1147433 -0.0072,0.014341 -0.05737,0.1004005 0.01434,-0.021513 -0.0502,0.078886 -0.01434,0.021513 -0.03586,0.071715 h 0.0072 l -0.02151,0.035858 v 0 l -0.01434,0.028687 c -0.01434,0.028687 -0.02151,0.064543 -0.02151,0.093229 v 0.014341 c 0,0.086058 0.0502,0.1649437 0.129085,0.1936298 0.07889,0.035858 0.164944,0.014341 0.229487,-0.043029 v -0.00717 c 0.08606,-0.078886 0.08606,-0.2151441 0,-0.2940302 -0.07889,-0.086058 -0.215144,-0.086058 -0.29403,0 l -0.0072,0.00717 c -0.06454,0.064543 -0.07888,0.1649437 -0.02868,0.2510013 0.04303,0.086058 0.143429,0.1219149 0.236657,0.1004005 0.09323,-0.028687 0.150602,-0.1075721 0.150602,-0.2079725 v -0.014343 l -0.0502,0.1434293 0.02151,-0.028687 0.02152,-0.028687 0.02152,-0.035858 v 0.00717 l 0.04303,-0.071715 -0.0072,0.014341 0.0502,-0.071715 0.01434,-0.014341 0.05737,-0.1004009 -0.0072,0.014341 0.07889,-0.1147438 0.0072,-0.00717 0.08606,-0.1362577 v -0.00717 l 0.09323,-0.1577725 h 0.0072 l 0.100399,-0.1864581 0.0072,-0.00717 0.107572,-0.1936297 v -0.00717 l 0.107572,-0.2079729 0.0072,-0.00717 0.100401,-0.2079727 v 0 l 0.107568,-0.2151453 v 0 l 0.08606,-0.1936297 v 0 l 0.08606,-0.1792868 h 0.0072 l 0.06454,-0.1506008 -0.0072,0.021514 0.06454,-0.1147436 V 2.662195 l 0.04303,-0.086058 -0.01434,0.035857 0.03586,-0.057372 -0.05737,0.057372 0.03586,-0.021515 -0.05737,0.028686 0.05737,-0.021515 c 0.10757,-0.035857 0.16494,-0.1434291 0.143426,-0.2510012 -0.02151,-0.1075716 -0.114743,-0.1864577 -0.229487,-0.1792863 z"
       id="path44" />
    <path
       style="fill:#000000;fill-opacity:1;fill-rule:nonzero;stroke:none;stroke-width:0.114707"
       d="m 18.745567,2.4542194 0.07888,-0.057372 -0.03586,0.021514 0.0502,-0.021514 -0.0502,0.014343 0.05737,-0.014343 -0.01434,0.00717 0.05737,-0.00717 h -0.02151 l 0.07172,-0.00717 h -0.02869 l 0.07171,0.00717 h -0.01434 l 0.07171,0.00717 -0.04303,-0.014343 0.07171,0.028686 -0.05737,-0.028686 0.07172,0.043029 -0.03586,-0.028686 0.07889,0.071715 -0.02869,-0.035857 0.06454,0.1004008 -0.0072,-0.021514 0.06454,0.121915 -0.0072,-0.021514 0.05737,0.136258 -0.0072,-0.021514 0.05737,0.1577724 v -0.021514 l 0.04303,0.1649439 v -0.00717 l 0.0502,0.1792868 v -0.00717 l 0.03586,0.1649439 v 0 l 0.04303,0.1792868 v -0.00717 l 0.02869,0.1649439 v -0.00717 l 0.02151,0.1577724 v 0 l 0.02151,0.1362581 v 0 l 0.02152,0.1290865 v 0.00717 l 0.02151,0.1147433 0.0072,0.014341 0.02151,0.1004004 v 0 l 0.02151,0.086058 v 0.014341 l 0.02151,0.064544 0.0072,0.021516 0.02151,0.057372 0.01434,0.028687 0.02152,0.043029 c 0.01434,0.021513 0.03586,0.0502 0.05737,0.064543 l 0.02152,0.021513 0.0072,0.00717 0.02152,0.014341 0.02151,0.014341 0.01434,0.014341 c 0.02151,0.014341 0.04303,0.021513 0.07171,0.028687 h 0.01434 l 0.02151,0.00717 h 0.0072 c 0.0502,0.00717 0.100401,0 0.1506,-0.028687 l 0.0072,-0.014341 v 0 l 0.01434,-0.00717 0.03586,-0.028687 0.0072,-0.00717 c 0.08606,-0.086058 0.08606,-0.2223154 0,-0.3012019 -0.07889,-0.078886 -0.215144,-0.086058 -0.294031,0 l -0.01434,0.014341 0.02869,-0.028687 -0.0072,0.00717 v 0 l -0.01434,0.00717 0.265345,0.028687 -0.0072,-0.00717 0.02152,0.028687 -0.0072,-0.014341 0.02869,0.064544 -0.0072,-0.021516 0.0072,0.00717 -0.0072,-0.028687 v 0.021512 -0.028687 l -0.0072,-0.014341 -0.0072,-0.0502 v 0.043029 -0.057372 l -0.0072,-0.035858 -0.01434,-0.064543 0.0072,0.028687 -0.0072,-0.078886 -0.0072,-0.028687 -0.01434,-0.1075721 v 0.021516 l -0.01434,-0.1147495 v -0.021512 l -0.02152,-0.1290872 v 0.00717 L 20.093641,3.766588 v -0.00717 l -0.02869,-0.1577735 v 0 L 20.036261,3.4367008 20.029061,3.4151868 19.986031,3.2359 V 3.22874 l -0.0502,-0.1649469 v -0.014341 l -0.05737,-0.1721154 v -0.00717 l -0.05737,-0.1649451 -0.0072,-0.014343 -0.06454,-0.1506008 -0.0072,-0.014343 -0.06454,-0.136258 -0.01434,-0.021515 -0.07888,-0.1147434 -0.01434,-0.021515 -0.07889,-0.093229 -0.03586,-0.035858 -0.07889,-0.064543 -0.04303,-0.028686 -0.07171,-0.043029 -0.05737,-0.021514 -0.07889,-0.014343 -0.05737,-0.00717 h -0.07171 -0.01434 -0.07171 l -0.02869,0.00717 -0.07171,0.00717 -0.02869,0.00717 -0.0502,0.021514 -0.02869,0.00717 -0.0502,0.021514 -0.02869,0.014343 -0.04303,0.028686 v 0 l -0.08606,0.0502 c -0.06454,0.043029 -0.107572,0.1219149 -0.107572,0.2008012 0.0072,0.086058 0.05737,0.1577724 0.136258,0.1936297 0.07171,0.035858 0.157772,0.021514 0.222316,-0.028686 z"
       id="path46" />
    <path
       style="fill:#000000;fill-opacity:1;fill-rule:nonzero;stroke:none;stroke-width:0.114707"
       d="m 18.049934,3.8096277 -0.07889,-0.035857 v 0 l -0.02869,-0.021514 0.02869,0.021514 -0.02152,-0.014343 -0.02869,-0.021515 -0.01434,-0.00717 c -0.09323,-0.043029 -0.200801,-0.028686 -0.272516,0.035857 -0.07889,0.064543 -0.107572,0.1721152 -0.07171,0.2653445 0.03586,0.093229 0.129086,0.1577725 0.229487,0.1577725 h 0.0072 -0.01434 l 0.02869,0.00717 h 0.01434 0.07889 v 0 h 0.09323 v 0 l 0.129085,0.00717 h -0.01434 l 0.14343,0.014341 h 0.01434 l 0.164944,0.00717 v 0 l 0.172114,0.00717 h 0.0072 l 0.19363,0.00717 v 0 l 0.200801,0.00717 h 0.01434 l 0.215144,0.00717 v 0 h 0.207972 0.0072 0.207973 v 0 l 0.200802,-0.00717 h -0.0072 l 0.186463,-0.00717 v 0 h 0.157771 0.01434 l 0.1506,-0.00717 h 0.01434 l 0.121916,-0.014341 h 0.0072 l 0.129086,-0.021516 C 20.768006,4.1825397 20.854063,4.0677949 20.83972,3.9387084 20.82538,3.8167935 20.710634,3.7235644 20.581547,3.7450788 l -0.129086,0.014343 h 0.0072 l -0.129086,0.014343 h 0.01434 l -0.157773,0.00717 h 0.01434 l -0.157764,-0.00717 v 0.00717 l -0.186458,-0.00717 h 0.0072 l -0.200802,-0.00717 v 0 h -0.207972 0.0072 l -0.200801,-0.014343 h -0.01434 l -0.215144,-0.00717 v 0 L 18.8318,3.7379118 v 0 l -0.19363,-0.014343 v 0 l -0.179286,-0.00717 v 0 l -0.164944,-0.00717 h 0.0072 l -0.143429,-0.01435 h -0.01434 l -0.129086,-0.00717 h -0.01434 l -0.09323,0.00717 v 0 h -0.07888 -0.01434 -0.02869 c -0.04303,0.00717 -0.09323,0.021514 -0.129088,0.0502 l -0.01434,0.014343 c -0.07889,0.057372 -0.114743,0.1721153 -0.07889,0.2653441 0.03586,0.1004009 0.121915,0.1649442 0.229487,0.1649442 h 0.01434 l -0.06454,-0.00717 0.02152,0.00717 h 0.01434 l 0.03586,0.014341 v 0 l 0.08606,0.021513 c 0.107573,0.028687 0.222316,-0.028687 0.265345,-0.1362581 0.03586,-0.1075721 -0.01434,-0.2294868 -0.114743,-0.2796871 z"
       id="path48" />
    <path
       style="fill:#000000;fill-opacity:1;fill-rule:nonzero;stroke:none;stroke-width:0.114707"
       d="m 21.843643,2.1458461 v -0.057372 l -0.0072,0.057372 0.0072,-0.014343 -0.07889,0.121915 0.0072,-0.00717 c 0.07172,-0.057372 0.100401,-0.1577723 0.07172,-0.24383 -0.02869,-0.093229 -0.100401,-0.1577725 -0.193629,-0.1649439 -0.09323,-0.014343 -0.186459,0.035857 -0.229487,0.1147436 l -0.0072,0.014343 c -0.01434,0.021514 -0.02151,0.0502 -0.02869,0.078886 v 0.021514 l -0.0072,0.028686 v 0.071715 0.00717 l -0.0072,0.093229 v 0.00717 0.1362579 0 0.1506009 0 0.1721153 0 0.1864583 0 0.2008012 -0.00717 0.2008012 0.00717 l 0.0072,0.1936297 v -0.00717 0.1864584 -0.00717 0.1864582 -0.00717 l -0.0072,0.1577721 v -0.00717 l -0.01434,0.1577721 v -0.00717 l -0.01434,0.1219148 v 0.00717 l -0.0072,0.1147432 v -0.014343 l -0.0072,0.086058 -0.0072,0.014341 v 0.064544 0 l -0.0072,0.0502 v 0 0.035858 l 0.03586,-0.1004004 -0.0072,0.00717 0.07889,-0.071715 -0.0072,0.00717 0.236658,0.043029 -0.0072,-0.014341 c -0.07889,-0.078886 -0.215144,-0.078886 -0.294031,0 -0.07889,0.086058 -0.07889,0.2151442 0,0.2940307 l 0.0072,0.00717 c 0.06454,0.064544 0.164943,0.078886 0.24383,0.043029 l 0.0072,-0.00717 c 0.02869,-0.014341 0.05737,-0.035858 0.07889,-0.071715 l 0.0072,-0.00717 c 0.01434,-0.021516 0.02868,-0.0502 0.03586,-0.078886 l 0.0072,-0.028687 v -0.021516 l 0.0072,-0.043029 -0.0072,0.014341 0.01434,-0.064543 v -0.00717 l 0.01434,-0.086058 h 0.0072 l 0.01434,-0.1075721 v 0 l 0.02152,-0.1290826 v 0 l 0.02151,-0.1577725 v -0.014343 l 0.01434,-0.1649438 v 0.00717 l 0.01434,-0.1864582 v -0.00717 l 0.0072,-0.1864583 v 0 l 0.0072,-0.1936297 V 3.3148012 3.114 3.12117 2.9203688 v 0 -0.1864583 0 -0.1721153 0 -0.1506009 0 -0.1362578 -0.00717 l -0.0072,-0.093229 v -0.00717 -0.071715 -0.028686 l -0.0072,-0.021514 c -0.0072,-0.028686 -0.01434,-0.057372 -0.02869,-0.078886 V 1.9522235 C 21.778984,1.8733375 21.692927,1.823137 21.599698,1.83748 c -0.09323,0.00717 -0.172116,0.071715 -0.200802,0.1649439 -0.02869,0.086058 0,0.1864582 0.07889,0.24383 v 0.00717 l -0.07171,-0.1219152 v 0.014343 l -0.0072,-0.057372 v 0.057372 c 0,0.078886 0.04303,0.1577724 0.107571,0.1936298 0.07171,0.043029 0.157774,0.043029 0.229487,0 0.07172,-0.035857 0.107573,-0.1147435 0.107573,-0.1936298 z"
       id="path50" />
    <path
       style="fill:#000000;fill-opacity:1;fill-rule:nonzero;stroke:none;stroke-width:0.114707"
       d="m 21.312953,2.6048204 0.0502,0.00717 h 0.03586 0.02869 -0.02869 0.02869 l -0.07889,-0.021514 0.04303,0.014343 -0.02152,-0.00717 0.0502,0.028686 -0.04303,-0.028686 0.05737,0.0502 -0.02151,-0.028686 0.07171,0.078886 -0.0072,-0.00717 0.07888,0.1004006 -0.0072,-0.014343 0.100401,0.1290864 0.0072,0.00717 0.121914,0.136258 -0.0072,-0.00717 0.121916,0.1506008 v 0.00717 l 0.136257,0.1577736 v 0 l 0.143429,0.1649439 v 0 l 0.14343,0.1649439 v 0 l 0.143426,0.150601 v 0.00717 l 0.129087,0.1362577 0.0072,0.00717 0.107571,0.1147437 0.0072,0.00717 0.100402,0.1004009 v 0 l 0.08606,0.086058 0.02151,0.014341 0.07171,0.064543 -0.0072,-0.00717 0.06454,0.057372 v -0.00717 l 0.04303,0.043029 0.02151,0.014341 0.0502,0.035858 0.03586,0.021513 0.04303,0.014341 -0.01434,-0.00717 0.03586,0.021517 0.02151,0.00717 0.03586,0.014341 -0.02151,-0.00717 0.04303,0.021517 -0.0072,-0.00717 0.03586,0.021512 -0.02151,-0.014341 0.03586,0.021516 0.0072,0.00717 0.02869,0.014341 h 0.0072 l 0.03586,0.021516 c 0.1004,0.057372 0.222316,0.021513 0.279688,-0.078887 0.05737,-0.1004004 0.02151,-0.2223153 -0.07889,-0.2796874 l -0.03586,-0.021512 v 0 l -0.02869,-0.014341 0.0072,0.00717 -0.03586,-0.021517 v 0 l -0.02869,-0.021512 0.01434,0.014341 -0.02868,-0.028687 0.02868,0.028687 -0.02152,-0.028687 -0.0072,-0.00717 -0.02869,-0.028687 0.0072,0.014341 -0.02869,-0.035858 -0.02151,-0.021516 -0.04303,-0.035858 0.02152,0.014341 -0.03586,-0.043029 -0.01434,-0.014341 -0.05737,-0.057372 0.0072,0.00717 -0.06454,-0.071715 v 0 l -0.07889,-0.08605 v 0 l -0.100402,-0.1075722 -0.0072,-0.00717 -0.114743,-0.1147435 0.01434,0.00717 -0.129087,-0.1434295 h -0.0072 L 22.71139,3.3291383 v 0.00717 L 22.567962,3.1713666 v 0.00717 L 22.431703,3.0135943 v 0 l -0.143429,-0.1577724 0.0072,0.00717 -0.121916,-0.150601 h -0.0072 L 22.044442,2.5689631 v 0.00717 l -0.100401,-0.1219148 -0.0072,-0.00717 -0.09323,-0.093229 -0.0072,-0.014343 -0.07889,-0.064543 -0.03586,-0.028686 -0.06454,-0.043029 -0.03586,-0.021514 -0.0502,-0.014343 -0.02869,-0.014343 -0.04303,-0.00717 c -0.02151,-0.00717 -0.04303,-0.00717 -0.07171,-0.00717 h -0.02869 l -0.03586,0.00717 -0.02869,0.00717 h -0.0072 l -0.0502,0.014343 c -0.107571,0.021514 -0.179286,0.1219151 -0.172115,0.2294871 0.0072,0.1147436 0.09323,0.2008013 0.207973,0.2079728 z"
       id="path52" />
    <path
       style="fill:#000000;fill-opacity:1;fill-rule:nonzero;stroke:none;stroke-width:0.114707"
       d="m 23.916198,1.8948446 0.0072,-0.0502 -0.0072,0.00717 0.0072,-0.021514 -0.0072,0.028686 0.0072,-0.021514 -0.0502,0.1004005 0.01434,-0.014343 c 0.06455,-0.086058 0.07172,-0.1936299 0.02152,-0.2868591 -0.05737,-0.086058 -0.157772,-0.1290865 -0.258173,-0.1147435 -0.100401,0.021514 -0.179287,0.1004005 -0.200801,0.2008012 v 0.021514 l -0.0072,0.014343 v 0.0502 0.00717 l -0.01434,0.086058 v 0.014343 0.1147435 -0.00717 l -0.0072,0.1506009 v 0 l -0.01434,0.1864583 v 0 l -0.0072,0.2008011 v 0 l -0.01434,0.2223157 v 0.00717 0.215144 l -0.0072,0.00717 v 0.2294872 0.00717 0.2294871 0 l 0.0072,0.2223156 v 0 0.2151442 0 0.2008013 0 l 0.0072,0.1649437 v 0.00717 0.1434293 0 l 0.0072,0.1075722 v 0.028686 l 0.01434,0.1004005 v -0.00717 l 0.0072,0.064544 c 0,0.028687 0.0072,0.0502 0.01434,0.071714 l 0.02151,0.0502 c 0.01434,0.028687 0.02869,0.0502 0.0502,0.071715 l 0.02868,0.028687 c 0.02152,0.021513 0.0502,0.043029 0.07889,0.0502 l 0.03586,0.014341 c 0.03586,0.014341 0.07172,0.014341 0.107574,0.014341 l 0.04303,-0.00717 c 0.129087,-0.00717 0.222316,-0.1219149 0.207973,-0.2510015 -0.0072,-0.1219153 -0.121915,-0.2151442 -0.251001,-0.207973 l -0.04303,0.00717 0.1004,0.014341 -0.03586,-0.014341 0.08606,0.0502 -0.02869,-0.021516 0.06454,0.1506009 v -0.057372 0.00717 -0.064543 0.014341 l 0.0072,-0.1004004 v -0.00717 -0.1075722 0 l 0.0072,-0.1434293 v -0.00717 -0.1649437 0 -0.2008014 0 l 0.0072,-0.215144 v 0 -0.2223156 0 -0.2294872 0 l 0.0072,-0.2294836 v 0 -0.2223157 0.00717 l 0.0072,-0.2223156 v 0 l 0.0072,-0.2008012 v 0 l 0.0072,-0.1792868 v -0.00717 -0.1577723 -0.00717 -0.1147436 0.00717 -0.086058 -0.028686 l -0.0072,-0.0502 v -0.014343 l -0.0072,-0.021514 c -0.01434,-0.1004008 -0.09323,-0.179287 -0.2008,-0.2008013 -0.100401,-0.014343 -0.200802,0.028686 -0.251002,0.1147435 -0.05737,0.093229 -0.0502,0.2008012 0.01434,0.2868588 l 0.01434,0.014343 -0.04303,-0.1004004 v 0.021514 -0.028686 0.021514 -0.00717 0.0502 c 0.0072,0.1147435 0.107572,0.2079727 0.222317,0.2079727 0.121914,0 0.215143,-0.093229 0.222315,-0.2079727 z"
       id="path54" />
  </g>
</svg>
